<?xml version="1.0" encoding="utf-8"?>
<!-- Generator: Adobe Illustrator 25.0.1, SVG Export Plug-In . SVG Version: 6.00 Build 0)  -->
<svg version="1.1" id="Camada_1" xmlns="http://www.w3.org/2000/svg" xmlns:xlink="http://www.w3.org/1999/xlink" x="0px" y="0px"
	 viewBox="0 0 1000 1000" style="enable-background:new 0 0 1000 1000;" xml:space="preserve">
<style type="text/css">
	.st0{fill-rule:evenodd;clip-rule:evenodd;fill:#FFFFFF;}
</style>
<g>
	<path class="st0" d="M1000,455.7c0-127.5-26.5-154.6-126.9-201.2c-89.3-41.5-210-74.7-373-74.7c-163,0-283.7,33.2-373,74.7
		C26.5,301.1,0,328.1,0,455.7c-1.5,165.8,51.4,202.5,157.9,269.8c107,67.6,250,95,342.1,94.8c92,0.3,235.1-27.2,342.1-94.8
		C948.6,658.2,1001.5,621.5,1000,455.7z M946.6,486.1c0,43.7-15.1,78.6-68.8,111.7c-71.1,43.7-139.7,65.6-201.2,73.4
		c0,69.7-66.9,124.2-176.5,124.2S323.4,741,323.4,671.2c-61.5-7.8-130.1-29.7-201.2-73.4c-53.7-33-68.8-67.9-68.8-111.7V432
		c0-54.1,33.8-70.1,68.8-82.5c72.6-25.6,205.8-39.1,377.8-41.8c172,2.7,305.2,16.2,377.8,41.8c35.1,12.4,68.8,28.4,68.8,82.5V486.1z
		"/>
	<path class="st0" d="M500,571.3c90.7,0,164.7,47.7,164.7,106.1c0,58.4-74,106.1-164.7,106.1s-164.7-47.7-164.7-106.1
		S409.3,571.3,500,571.3z M455.8,623.7c0.3,10.1-2.7,16.8-8,21.1c-3.3,2.5-3.3,5,0,7.5c5.7,3.5,6.1,11.3,6.9,18.8
		c-1.6,9.5,2.4,14.6,11.7,15.3c6.9,1.1,13.6,4.3,12.2,11.9c-3.7,20.3-35.4,20-50.3,37c-5.2,5.6-7.8,16.9,1.8,16.9h144.2
		c10.1,0,6.5-12.9,1.4-18.3c-15.7-17-50.6-28.1-55-44.6c-1.3-7.5,0.3-12.4,8.6-11.1c7.1,1.9,12.8,0.2,16.5-7.1
		c19.5-5.8,20.7-16.5,13.6-29.3c0.1-9.7-3.7-17-9.7-22.8c-3.1-11.3-9.9-17.2-19.2-19.3c-6.4-8.4-14.2-12.4-23.3-12
		c-13.2-2.3-25.8-3.8-33.8,0l-15.6,14.9C456.6,608.2,456.5,616.7,455.8,623.7L455.8,623.7z"/>
	<path class="st0" d="M635.7,541.4V389.5h28.9v79.4l37.5-45.4h34.1l-40.7,46.5l45.4,71.5h-32.4l-32.9-52.3l-11,12.1v40.2
		L635.7,541.4L635.7,541.4L635.7,541.4z M606.8,510.1c0,11.7,2,13.8,17.1,12.7v19.8l-20.6-0.1c-20.4-0.1-26.2-9.5-26.2-27.1v-71.3
		h-14.4v-21.5H577v-23.1h29.8v23.1h18v21.5h-18V510.1z M485.8,468.5h40.3c0-11.9,0.8-30.2-19.2-30.2S485.8,457,485.8,468.5z
		 M527,504.7h28c0.1,27.5-20.9,41.7-50.7,41.7c-37.6,0-49.5-31-49.5-65.7c0-35.9,16.2-62.6,51.3-62.6c44,0,51.7,36.4,51.7,70H486
		c-1.4,11-0.9,37.5,21.3,37.5C526.2,525.7,527,515.4,527,504.7z M764.3,468.5h40.3c0-11.9,0.8-30.2-19.2-30.2
		C765.4,438.3,764.3,457,764.3,468.5z M805.5,504.7h28c0.1,27.5-20.9,41.7-50.7,41.7c-37.6,0-49.5-31-49.5-65.7
		c0-35.9,16.2-62.6,51.3-62.6c44,0,51.8,36.4,51.8,70h-71.9c-1.4,11-1,37.5,21.3,37.5C804.7,525.7,805.5,515.4,805.5,504.7z
		 M358.6,465.5c0,18.3-2.5,57.9,25.1,57.9c28.2,0,25.1-40.1,25.1-57.9c0-18.2-0.2-57.2-25.4-57.2
		C359.6,408.3,358.6,447.3,358.6,465.5z M324.5,465.5c0-40.3,11-79.6,58.4-79.6c48.2,0,59.9,40.6,59.9,79.6c0,43.7-8,79.6-62.7,79.6
		C333.5,545.1,324.5,507,324.5,465.5L324.5,465.5z M274,541.4v-24.1h26.8v24.1H274z M232.2,541.4V423h25.6v18.6
		c7.7-14.8,22.5-21.5,38.6-21.5v27.8c-13.7-1.7-33.9,6.4-33.9,22.4v71.2L232.2,541.4L232.2,541.4L232.2,541.4z M851.2,541.4V423
		h25.6v18.6c7.7-14.8,22.5-21.5,38.6-21.5v27.8c-13.7-1.7-33.9,6.4-33.9,22.4v71.2L851.2,541.4L851.2,541.4L851.2,541.4z
		 M104.4,541.4V389.5h53.4c33.9,0,52.2,16.6,55.7,45c0.8,6.2,1,13.5,1,21.7c0,21.8,0.4,37.4-2.2,45.9
		c-11.4,36.3-30.9,39.4-64.9,39.4L104.4,541.4L104.4,541.4L104.4,541.4z M137.5,519h11.3c7.3,0,15.4-0.5,18.2-1.3
		c2.7-0.8,5.2-2.5,6.9-4.8c2.9-3.9,5-9.4,6.3-16.4c1.3-7,1.9-17.9,1.9-32.8c0-14.9-0.7-25.7-2.2-32.4c-1.5-6.6-4-11.6-7.6-15
		c-1.8-1.7-4.2-2.9-7.2-3.6c-3-0.7-10.7-1-16.7-1h-10.8V519L137.5,519z"/>
</g>
</svg>
