<?xml version="1.0" encoding="utf-8"?>
<!-- Generator: Adobe Illustrator 25.0.1, SVG Export Plug-In . SVG Version: 6.00 Build 0)  -->
<svg version="1.1" id="Camada_1" xmlns:svg="http://www.w3.org/2000/svg"
	 xmlns="http://www.w3.org/2000/svg" xmlns:xlink="http://www.w3.org/1999/xlink" x="0px" y="0px" viewBox="0 0 1000 1000"
	 style="enable-background:new 0 0 1000 1000;" xml:space="preserve">
<style type="text/css">
	.st0{fill:#FFFFFF;}
	.st1{fill:url(#path338_1_);}
	.st2{fill:url(#path358_1_);}
	.st3{fill:#D3D3D3;}
</style>
<g id="g10" transform="matrix(1.25,0,0,-1.25,-53.928876,796.25842)">
	<g id="g280" transform="matrix(1.7716322,0,0,1.7716322,-33.290604,-378.0145)">
		<g>
			<g id="g282">
				<g id="g288" transform="translate(65.8475,489.8899)">
					<path id="path290" class="st0" d="M90.8-350.3c-23,0-28.8,9.8-28.8,27v41.6c0,1,0.7,1.4,1.7,1.7l7.1,1.7h0.4
						c0.9,0,1.2-0.9,1.2-1.7v-44.3c0-12.3,4.3-17.8,18.4-17.8c17,0,18.3,8.4,18.3,18.2v42.2c0,1,0.8,1.4,1.7,1.7l7.1,1.7h0.4
						c0.9,0,1.3-0.9,1.3-1.7v-43C119.6-336,117.7-350.3,90.8-350.3"/>
				</g>
				<g id="g292" transform="translate(105.757,490.6462)">
					<path id="path294" class="st0" d="M250.5-347.3c0-0.5-0.5-1.2-1-1.3c-2.9-0.9-8.5-2.5-15.9-2.5c-12.9,0-19.1,5.6-19.1,18.2
						v71.9c0,1,0.7,1.4,1.6,1.6l7.1,1.8h0.4c0.9,0,1.3-0.9,1.3-1.7v-21.4h22c1.2,0,2-0.8,2-2v-4.5c0-1.2-0.8-2-2-2h-22V-334
						c0-7.2,3.9-8.8,10.7-8.8c4.1,0,9.3,1,12,1.7h0.4c0.7,0,1.2-0.4,1.4-1.2l1.2-4.8V-347.3z"/>
				</g>
				<g id="g296" transform="translate(124.0209,503.6118)">
					<path id="path298" class="st0" d="M323.5-295.5c-0.5,0.8-1.2,1.7-2.4,1.7h-8.3c-0.7,0-1.2-0.8-1.2-1.6l0.4-0.9l23.1-31.8
						l-23.1-31.7l-0.4-1c0-0.9,0.5-1.6,1.4-1.6h8.1c0.7,0,1.4,0.5,1.8,1l18.1,25l18.1-25c0.4-0.5,1.2-1,1.8-1h8.1
						c0.9,0,1.4,0.7,1.4,1.6l-0.4,1L323.5-295.5z"/>
				</g>
				<g id="g300" transform="translate(129.3873,498.3481)">
					<path id="path302" class="st0" d="M345-316.5c0.9-0.8,1.6,0.3,1.6,0.3l18.3,25.2l0.4,0.9c0,0.8-0.5,1.6-1.2,1.6h-8.3
						c-1.2,0-1.8-0.9-2.4-1.7l-12.9-17.7c0,0-1.1-1.1-0.2-2.3C340.6-310.5,343.6-314.7,345-316.5"/>
				</g>
				<g id="g304" transform="translate(82.7061,503.4399)">
					<path id="path306" class="st0" d="M158.3-296.1c-0.1,1-1,1.4-1.4,1.5c-4.3,1.3-18.8,3.6-29,2.1l0,0l-0.7-0.1
						c-2.7-0.5-4.8-1.6-5.7-2.5c-1.5-1.4-1.9-3.6-1.9-7.2v-58c0-1.2,0.7-2,1.8-2h0.1h5.4h1.2c1.2,0,1.8,0.8,1.8,2v58.8
						c0.4,0,0.8,0,1.3,0.1c10.1,0.6,18.7-0.9,24.2-1.9l0.8-0.1c0.5,0,1,0.3,1.2,1.1l0.8,5.8L158.3-296.1z"/>
				</g>
				<g id="g308" transform="translate(93.7368,503.6111)">
					<path id="path310" class="st0" d="M202.4-295.5c-3.8,2.1-10.3,3.3-19.1,3.4c-6.5,0.1-18.6-1.1-22.7-2.6
						c-0.4-0.1-1.3-0.5-1.3-1.6v-0.3l1.2-5.9c0.3-0.8,0.8-1,1.3-1l0.8,0.1c5.4,1.3,11.6,2.5,19.6,2.4c5.8,0,9.4-0.5,11.9-1.6
						c4.6-1.7,4.7-5.1,4.7-9.3v-41.6c-5.5-1.8-11.4-2.5-17.2-2.5c-8.6,0-19.9,0.8-19.9,13.9c0,10.3,7.6,12.2,13.1,12.2h8.5h7.8
						c0.8,0,1.3,0.5,1.3,1.3v5.7c0,0.8-0.5,1.3-1.3,1.3H174c-10.2,0-22.4-3.9-22.4-20.9c0-21.2,18.4-21.8,29.7-21.8
						c6.9,0,13.2,1,17,1.8c9,2.2,10.8,4.3,10.8,13.5v37.5C209.2-305.1,209-299,202.4-295.5"/>
				</g>
				<g id="g312" transform="translate(118.7643,501.9653)">
					<path id="path314" class="st0" d="M302.5-302c-4.3,7.5-12,11.6-25.8,11.6c-25.9,0-30.3-14-30.3-36.1c0-24,7.6-35.9,33.2-35.9
						c8.6,0,17.3,1.7,22.5,3.8c0.8,0.4,1.6,1,1.3,2c-0.3,1-1.4,5-1.4,5c-0.4,1.3-1.5,1.1-1.7,1l-1.1-0.3c-3.7-1-6.7-1.9-10.7-2.5
						c-2.2-0.3-5-0.6-7.8-0.6c-9.1,0-15.6,1.4-19.3,6.3c-1.9,2.3-3.1,4.9-3.6,8.6c-0.1,0.7-0.4,5-0.5,6.2c-0.2,6.1-0.1,9.9,0,10.4
						c0.1,4.2,0.4,8.6,1.5,12.8c2.2,8.4,7.3,11.1,17.8,11.1c10.6,0,15.7-2.8,18-11.1c1.2-4.8,1.4-8.6,1.6-13.6h-31.2
						c-0.8,0-1.3-0.5-1.3-1.3v-5.9c0-0.8,0.5-1.3,1.3-1.3h39.8c0.9,0,2,1,2,2.2v5.7C306.7-314.9,305.9-307.9,302.5-302"/>
				</g>
				<g id="g316" transform="translate(50.6541,508.6135)">
					<path id="path318" class="st0" d="M30-275.4c-2.4,0.4-11.8,0.8-20.7,0.8c-5.5,0-14.7-0.3-14.7-0.3c-1.2,0-2.1-0.9-2.1-2.1
						v-44.8v-44.8c0-1.2,0.9-2.1,2.1-2.1c0,0,9.3-0.3,14.7-0.3c8.9,0,18.4,0.4,20.7,0.8c20.8,1.9,32.6,10.6,32.6,46.4
						C62.7-286.1,50.9-277.4,30-275.4 M23.4-359c-1.3-0.1-4.2-0.2-7.2-0.2c-2.5,0-4.7,0-6.2,0c-2.1,0-4.3,0-6.3,0.1v37.2v37.2
						c2,0.1,4.2,0.1,6.3,0.2c1.6,0,3.8,0,6.2,0c3.1-0.1,5.9-0.2,7.2-0.2c18.4-0.9,27.9-6.4,27.9-37.1C51.2-352.5,41.8-358,23.4-359"
						/>
				</g>
			</g>
		</g>
	</g>
	<g id="g320" transform="matrix(1.7716322,0,0,1.7716322,-33.290604,-378.0145)">
		<g id="g322">
			<g id="g328">
				<g id="g330">
					
						<linearGradient id="path338_1_" gradientUnits="userSpaceOnUse" x1="44.3788" y1="119.1089" x2="49.3788" y2="119.1089" gradientTransform="matrix(0.1605 -91.9756 -91.9756 -0.1605 11232.0381 4588.0381)">
						<stop  offset="0" style="stop-color:#FFFFFF"/>
						<stop  offset="1" style="stop-color:#D3D3D3"/>
					</linearGradient>
					<path id="path338" class="st1" d="M260.1,554.7l0-0.4c88.8-134.6,10.4-258-53.3-228.7l0,0c20.6-39.9,56.8-51.2,86.6-42.7l0,0
						c71,20.1,121.6,151.7-33,271.7l0,0l-0.1,0.1L260.1,554.7L260.1,554.7z"/>
				</g>
			</g>
		</g>
	</g>
	<g id="g340" transform="matrix(1.7716322,0,0,1.7716322,-33.290604,-378.0145)">
		<g id="g342">
			<g id="g348">
				<g id="g350">
					
						<linearGradient id="path358_1_" gradientUnits="userSpaceOnUse" x1="45.682" y1="118.7057" x2="50.682" y2="118.7057" gradientTransform="matrix(4.3624 -54.2199 -54.2199 -4.3624 6459.3818 3443.595)">
						<stop  offset="0" style="stop-color:#FFFFFF"/>
						<stop  offset="1" style="stop-color:#D3D3D3"/>
					</linearGradient>
					<path id="path358" class="st2" d="M182.4,394.7c-18.9-29.3,3.1-56.3,24.5-69l0,0c-20.5,54.5,87.5,73.4,66.5,135.9l0,0l-0.4,0.1
						C266.3,438.2,200.7,423.1,182.4,394.7"/>
				</g>
			</g>
		</g>
	</g>
</g>
<rect x="1155.3" y="408.1" class="st0" width="75.8" height="75.8"/>
<rect x="1155.3" y="489.1" class="st3" width="75.8" height="75.8"/>
</svg>
