<?xml version="1.0" encoding="utf-8"?>
<!-- Generator: Adobe Illustrator 25.0.1, SVG Export Plug-In . SVG Version: 6.00 Build 0)  -->
<svg version="1.1" id="Camada_1" xmlns="http://www.w3.org/2000/svg" xmlns:xlink="http://www.w3.org/1999/xlink" x="0px" y="0px"
	 viewBox="0 0 1000 1000" style="enable-background:new 0 0 1000 1000;" xml:space="preserve">
<style type="text/css">
	.st0{fill:#FFFFFF;}
</style>
<g>
	<path class="st0" d="M540.4,321.7L540.4,321.7L540.4,321.7z"/>
	<polygon class="st0" points="248.5,882.2 306.4,882.2 277.2,804.8 	"/>
	<path class="st0" d="M113.5,0v1000h773.1V0H113.5z M338.7,964.8l-18.4-47.5h-84.9l-17.5,47.5h-45.4l82.7-208.7h45.3l85.1,208.7
		H338.7z M536.2,943.8c-12.5,13.9-27.7,20.9-45.6,20.9c-8.9,0-17.5-2.2-26.1-6.5c-8.5-4.4-15.9-10.8-22-19.2v22.3h-37.9l0,0l0,0l0,0
		l0,0V752.7h40.7v75.1c12.5-14,27.4-20.9,44.7-20.9c18.7,0,34.2,6.6,46.5,19.9c12.2,13.3,18.4,32.4,18.4,57.5
		C554.9,909.9,548.5,929.8,536.2,943.8z M500.5,283.7c3.8,45.3-25.9,73.7-89.4,85.2C419.1,320.2,447.5,290.4,500.5,283.7z
		 M476.2,140.1c25.4,44.5,29.4,107.9-23,135.2C428.8,228.4,435.2,174.6,476.2,140.1z M757.4,328.6c-29.6,38.5-71.7,44.2-126.5,17
		l0,0C668,302.1,710.4,296.5,757.4,328.6z M714.9,176.7c6.6,46.7-17.9,85.6-65.7,120.1C639,245.2,657,204.1,714.9,176.7z
		 M706.2,443.4c-52.7,5.7-87.2-11.3-99.8-54.4C651.5,368.9,694.5,393.2,706.2,443.4z M589,358.3c-33.4-50-35.8-90.5,9.5-121
		C631,276.8,620.8,316.4,589,358.3z M533.2,255.4c-20.6-51.8-15.1-94.9,37.2-122.1C586.5,180,574.2,220.7,533.2,255.4z M540.4,321.7
		L540.4,321.7L540.4,321.7L540.4,321.7c27,46.9,21.5,84.1-31.6,111.5C496.5,381.5,505.4,342.3,540.4,321.7z M660.2,852.5
		c-6.8-4.3-13.1-6.5-19-6.5c-5.7,0-10.5,1.5-14.4,4.6c-4,3.1-7.1,8.7-9.4,16.8c-2.2,8-3.4,24.9-3.4,50.6v46.7h-40.7V813.6h37.9v21.5
		c6.3-10.2,12.2-17,17.4-20.1c5.2-3.2,11.1-4.9,17.5-4.9c9.3,0,18.3,2.5,26.8,7.5L660.2,852.5z M731.2,964.8h-40.7V813.6h40.7V964.8
		z M731.2,793.1h-40.7v-37h40.7V793.1z M809.2,964.8h-40.7V756.1h40.7V964.8z M855.8,711.5H595.5c-26-52.9-42-108.8-44.8-173.4
		c-2-47.8,3.1-88.3,34.1-119.5c28.1,40.5,76.6,58,146,52.9c3.8-27,2.2-53.8-17-80.9c28.8-4.4,57.8-18.8,86.9-48
		c-14.1-30.7-38.3-53.3-85.4-59.1c31.2-34.3,37.6-78.5,29-130.3c-56.6-8.2-123.6,31.9-115.9,97.8c-4.2-16.1-11-28.1-21.5-34.1
		c8.9-36.7,4-86-9.5-122.6c-43.4,8.2-60.8,21.2-85.4,55.8c-2-17.2-10.8-40.3-29.6-57.5c-24.8,9.3-41.4,32.1-49.6,49.6
		c-12.4-36.7-43.4-62.6-80.7-74.5c-39.4,33.6-37.8,75.6-23.4,125.7c-32.7-4.6-71.4-9.3-107.1,4.8c5.7,31.6,29.6,69.7,55.8,93.1
		c-22.8,2-45.4,7.1-68.3,34.1c10.4,27.4,33,46.5,68.3,57.5c-26.8,23.4-42.3,49.8-46.5,80.7c68.3,24.8,157.3,5.3,184.7-48.2
		c35.2,41.4,35.8,84.3,34.1,125.7c-2.1,56.8-15.6,113.5-48.1,170.3H140.4V30.8h715.4L855.8,711.5L855.8,711.5z M391,387.2
		c-18.2,43.3-49.1,67.2-107.7,54.8l0,0C297.2,395,326.7,368.6,391,387.2z M255,329.3c43.1-22.6,79.9-17.2,110.4,16.2
		C321.8,375.3,284.9,370,255,329.3z M269.2,225.8c56.9-12.4,99.1,13.7,126.3,79.9C338.6,303,291.5,284.2,269.2,225.8z M391.2,232.6
		c-40.7-34.5-53.1-75.2-37.2-122.1C406.2,137.9,412,180.9,391.2,232.6z"/>
	<path class="st0" d="M479.1,837.3c-9.7,0-17.8,3.7-24.3,11.2c-6.5,7.4-9.7,18.7-9.7,33.9l0,0c0,15.6,2.5,27.1,7.5,34.7
		c7.1,10.8,16.5,16.1,28.2,16.1c9,0,16.7-3.8,23-11.4c6.3-7.5,9.4-19.5,9.4-35.7c0-17.3-3.2-29.8-9.6-37.3
		C497.2,841.2,489.1,837.3,479.1,837.3z"/>
	<polygon class="st0" points="404.5,961.4 404.5,961.4 404.5,961.4 	"/>
</g>
</svg>
