<?xml version="1.0" encoding="utf-8"?>
<!-- Generator: Adobe Illustrator 25.0.1, SVG Export Plug-In . SVG Version: 6.00 Build 0)  -->
<svg version="1.1" id="Camada_1" xmlns="http://www.w3.org/2000/svg" xmlns:xlink="http://www.w3.org/1999/xlink" x="0px" y="0px"
	 viewBox="0 0 200 17" style="enable-background:new 0 0 200 17;" xml:space="preserve">
<style type="text/css">
	.st0{fill:#FFFFFF;}
</style>
<g>
	<path class="st0" d="M5.6,1.4v12c0,0.3,0.1,0.5,0.2,0.6c0.1,0.1,0.1,0.1,0.2,0.1c0,0,0.2,0.1,0.5,0.1c0.3,0.1,0.5,0.3,0.5,0.6
		c0,0.2-0.1,0.3-0.3,0.4c-0.1,0.1-0.3,0.1-0.6,0.1H5.6H1H0.8c-0.2,0-0.4,0-0.6-0.1C0.1,15.1,0,15,0,14.8c0-0.3,0.1-0.5,0.4-0.6
		c0.2-0.1,0.4-0.1,0.4-0.1c0,0,0.1-0.1,0.1-0.1C1,13.9,1,13.7,1,13.5V3.2C1,3,1,2.8,0.9,2.7c0-0.1-0.1-0.1-0.1-0.1
		c0,0-0.2-0.1-0.4-0.1C0.1,2.4,0,2.2,0,1.9c0-0.2,0.1-0.3,0.2-0.4c0.1-0.1,0.3-0.1,0.6-0.1H1H5.6z M6.4,8.8V7.6
		C6.8,7.5,7.1,7.2,7.3,7c0.2-0.2,0.3-0.5,0.4-0.9c0.1-0.3,0.1-0.4,0.2-0.5C8,5.5,8.2,5.4,8.3,5.4c0.2,0,0.4,0.1,0.4,0.3
		c0,0.1,0.1,0.3,0.1,0.6v3.9c0,0.3,0,0.5-0.1,0.7C8.7,11,8.5,11,8.3,11c-0.2,0-0.3,0-0.4-0.1s-0.2-0.3-0.2-0.5
		C7.6,9.9,7.5,9.6,7.3,9.3C7,9.1,6.8,8.9,6.4,8.8z M6.5,1.4h4.1V5c0,0.2,0,0.4-0.1,0.5s-0.2,0.2-0.4,0.2c-0.1,0-0.2,0-0.3-0.1
		C9.7,5.4,9.6,5.3,9.6,5.1C9.5,4.8,9.3,4.5,9.2,4.2C9,3.9,8.8,3.7,8.6,3.5C8.3,3.2,8,3,7.7,2.9C7.4,2.7,7,2.6,6.5,2.6V1.4z"/>
	<path class="st0" d="M17.4,1.4v14h-4.5h-0.3c-0.2,0-0.4,0-0.6-0.1c-0.1-0.1-0.2-0.2-0.2-0.4c0-0.3,0.1-0.5,0.4-0.6
		c0.2-0.1,0.4-0.1,0.4-0.1c0,0,0.1-0.1,0.1-0.1c0.1-0.1,0.1-0.3,0.1-0.5V3.2c0-0.2,0-0.4-0.1-0.5c0-0.1-0.1-0.1-0.1-0.1
		c0,0-0.2-0.1-0.4-0.1c-0.3-0.1-0.4-0.3-0.4-0.6c0-0.2,0.1-0.3,0.2-0.4c0.1-0.1,0.3-0.1,0.6-0.1h0.3H17.4z M18.3,8.8V7.6
		C18.7,7.5,19,7.2,19.2,7c0.2-0.2,0.3-0.5,0.4-0.9c0.1-0.3,0.1-0.4,0.2-0.5c0.1-0.1,0.2-0.1,0.4-0.1c0.2,0,0.4,0.1,0.4,0.3
		c0,0.1,0.1,0.3,0.1,0.6v3.9c0,0.3,0,0.5-0.1,0.7C20.5,11,20.4,11,20.2,11c-0.2,0-0.3,0-0.4-0.1s-0.2-0.3-0.2-0.5
		c-0.1-0.5-0.3-0.8-0.5-1.1S18.6,8.9,18.3,8.8z M18.3,1.4h4.1V5c0,0.2,0,0.4-0.1,0.5c-0.1,0.1-0.2,0.1-0.4,0.1c-0.1,0-0.3,0-0.3-0.1
		c-0.1-0.1-0.1-0.2-0.2-0.4c-0.3-0.8-0.6-1.4-1.1-1.8c-0.5-0.4-1.2-0.7-1.9-0.7V1.4z M18.4,15.3v-1.1c0.4-0.1,0.8-0.2,1.1-0.3
		s0.6-0.3,0.9-0.6c0.3-0.3,0.5-0.5,0.7-0.8c0.2-0.3,0.3-0.6,0.5-1.1c0.1-0.2,0.2-0.4,0.2-0.4C21.8,11,22,11,22.1,11
		c0.2,0,0.3,0.1,0.4,0.2c0.1,0.1,0.1,0.3,0.1,0.6v3.6H18.4z"/>
	<path class="st0" d="M29.7,1.4v12c0,0.3,0.1,0.5,0.2,0.6c0.1,0.1,0.1,0.1,0.2,0.1c0,0,0.2,0.1,0.5,0.1c0.3,0.1,0.5,0.3,0.5,0.6
		c0,0.2-0.1,0.3-0.3,0.4c-0.1,0.1-0.3,0.1-0.6,0.1h-0.3h-4.6h-0.3c-0.2,0-0.4,0-0.6-0.1c-0.1-0.1-0.2-0.2-0.2-0.4
		c0-0.3,0.1-0.5,0.4-0.6c0.2-0.1,0.4-0.1,0.4-0.1c0,0,0.1-0.1,0.1-0.1c0.1-0.1,0.1-0.3,0.1-0.5V3.2c0-0.2,0-0.4-0.1-0.5
		c0-0.1-0.1-0.1-0.1-0.1c0,0-0.2-0.1-0.4-0.1c-0.3-0.1-0.4-0.3-0.4-0.6c0-0.2,0.1-0.3,0.2-0.4c0.1-0.1,0.3-0.1,0.6-0.1h0.3H29.7z
		 M32.9,8.5c0.6,0.1,1.1,0.2,1.4,0.3c0.3,0.1,0.6,0.3,0.9,0.5c0.3,0.2,0.5,0.5,0.7,0.8c0.2,0.3,0.2,0.6,0.2,0.9v2.1
		c0,0.2,0.1,0.3,0.2,0.3c0.1,0,0.1,0,0.1,0s0.1-0.1,0.2-0.2c0.2-0.2,0.3-0.3,0.5-0.3c0.1,0,0.2,0.1,0.3,0.2c0.1,0.1,0.2,0.2,0.2,0.4
		c0,0.2-0.1,0.5-0.3,0.8s-0.5,0.6-0.8,0.8c-0.3,0.2-0.6,0.4-0.9,0.5c-0.3,0.1-0.7,0.1-1.2,0.1c-0.9,0-1.6-0.3-2.1-0.8
		c-0.5-0.5-0.8-1.2-0.8-2.2V11c0-0.4,0-0.6,0-0.7c0-0.3-0.1-0.5-0.3-0.7c-0.2-0.2-0.5-0.4-0.8-0.4V8.1c0.4-0.1,0.6-0.1,0.8-0.3
		c0.1-0.1,0.2-0.3,0.3-0.4c0.1-0.2,0.1-0.4,0.1-0.7V4c0-0.4-0.1-0.7-0.3-1c-0.2-0.2-0.5-0.4-0.9-0.5V1.4h0.3c0.8,0,1.4,0,1.9,0.1
		c0.8,0.1,1.5,0.3,2.1,0.8c0.9,0.6,1.3,1.5,1.3,2.7c0,1-0.3,1.7-0.9,2.4c-0.3,0.3-0.5,0.5-0.9,0.6S33.6,8.3,32.9,8.5z"/>
	<path class="st0" d="M44.4,1.4v12c0,0.3,0.1,0.5,0.2,0.6c0.1,0.1,0.1,0.1,0.2,0.1c0,0,0.2,0.1,0.5,0.1c0.3,0.1,0.5,0.3,0.5,0.6
		c0,0.2-0.1,0.3-0.3,0.4c-0.1,0.1-0.3,0.1-0.6,0.1h-0.3h-4.6h-0.3c-0.2,0-0.4,0-0.6-0.1c-0.1-0.1-0.2-0.2-0.2-0.4
		c0-0.3,0.1-0.5,0.4-0.6c0.2-0.1,0.4-0.1,0.4-0.1c0,0,0.1-0.1,0.1-0.1c0.1-0.1,0.1-0.3,0.1-0.5V3.2c0-0.2,0-0.4-0.1-0.5
		c0-0.1-0.1-0.1-0.1-0.1c0,0-0.2-0.1-0.4-0.1c-0.3-0.1-0.4-0.3-0.4-0.6c0-0.2,0.1-0.3,0.2-0.4c0.1-0.1,0.3-0.1,0.6-0.1h0.3H44.4z
		 M47.5,8.5c0.6,0.1,1.1,0.2,1.4,0.3c0.3,0.1,0.6,0.3,0.9,0.5c0.3,0.2,0.5,0.5,0.7,0.8c0.2,0.3,0.2,0.6,0.2,0.9v2.1
		c0,0.2,0.1,0.3,0.2,0.3c0.1,0,0.1,0,0.1,0s0.1-0.1,0.2-0.2c0.2-0.2,0.3-0.3,0.5-0.3c0.1,0,0.2,0.1,0.3,0.2c0.1,0.1,0.2,0.2,0.2,0.4
		c0,0.2-0.1,0.5-0.3,0.8c-0.2,0.3-0.5,0.6-0.8,0.8c-0.3,0.2-0.6,0.4-0.9,0.5s-0.7,0.1-1.2,0.1c-0.9,0-1.6-0.3-2.1-0.8
		s-0.8-1.2-0.8-2.2V11c0-0.4,0-0.6,0-0.7c0-0.3-0.1-0.5-0.3-0.7c-0.2-0.2-0.5-0.4-0.8-0.4V8.1C45.6,8,45.8,7.9,46,7.8
		c0.1-0.1,0.2-0.3,0.3-0.4c0.1-0.2,0.1-0.4,0.1-0.7V4c0-0.4-0.1-0.7-0.3-1s-0.5-0.4-0.9-0.5V1.4h0.3c0.8,0,1.4,0,1.9,0.1
		c0.8,0.1,1.5,0.3,2.1,0.8c0.9,0.6,1.3,1.5,1.3,2.7c0,1-0.3,1.7-0.9,2.4c-0.3,0.3-0.5,0.5-0.9,0.6S48.2,8.3,47.5,8.5z"/>
	<path class="st0" d="M56.8,4l0.5,2.1l-1.8,6.6c-0.1,0.2-0.1,0.4-0.1,0.5c0,0.4,0.2,0.7,0.6,0.9l0.4,0.2c0.2,0.1,0.3,0.3,0.3,0.5
		c0,0.3-0.2,0.5-0.7,0.5h-2.6c-0.3,0-0.5-0.1-0.6-0.2s-0.2-0.3-0.2-0.4c0-0.2,0.1-0.4,0.4-0.5c0.3-0.1,0.5-0.2,0.6-0.3
		s0.3-0.2,0.4-0.4c0.2-0.3,0.3-0.7,0.5-1.1L56.8,4z M57.5,1.4h4.1l2.8,12c0.1,0.2,0.1,0.4,0.2,0.6c0.1,0.1,0.2,0.2,0.4,0.3
		c0.2,0.1,0.3,0.1,0.4,0.2c0.1,0.1,0.1,0.2,0.1,0.3c0,0.4-0.3,0.5-0.8,0.5h-5.1c-0.2,0-0.4,0-0.5-0.1C59,15.1,59,15,59,14.8
		c0-0.1,0-0.2,0.1-0.3c0.1-0.1,0.2-0.2,0.4-0.3c0.1-0.1,0.2-0.1,0.3-0.2c0.1-0.1,0.1-0.2,0.1-0.3c0-0.1,0-0.2,0-0.3l-0.3-1.5h-2.9
		l0.3-1.2h2.3l-1.9-8.3L57.5,1.4z"/>
	<path class="st0" d="M71.8,1.4l2,5.7L74.7,4v3.4l-2.4,7.9h-0.5l-4-11.8c-0.1-0.4-0.3-0.7-0.4-0.8c-0.1-0.1-0.2-0.2-0.5-0.2
		c-0.4-0.1-0.7-0.3-0.7-0.6c0-0.2,0.1-0.3,0.2-0.4s0.3-0.1,0.5-0.1H71.8z M67.8,6.1l1.1,3.1v3.1c0,0.3,0,0.5,0,0.7
		c0,0.1,0.1,0.3,0.2,0.4c0.1,0.3,0.3,0.5,0.6,0.7l0.4,0.2c0.3,0.2,0.4,0.3,0.4,0.5c0,0.3-0.3,0.5-0.8,0.5h-2.6
		c-0.5,0-0.8-0.2-0.8-0.5c0-0.1,0-0.2,0.1-0.3c0-0.1,0.1-0.1,0.3-0.2c0.8-0.4,1.1-1.1,1.1-2.1V6.1z M75.5,1.4h4.5h0.3
		c0.5,0,0.8,0.2,0.8,0.5c0,0.3-0.1,0.5-0.4,0.6c-0.2,0.1-0.4,0.1-0.4,0.1c0,0-0.1,0.1-0.1,0.1c-0.1,0.1-0.1,0.3-0.1,0.5v10.2
		c0,0.2,0,0.4,0.1,0.5c0,0.1,0.1,0.1,0.1,0.1c0,0,0.2,0.1,0.4,0.1c0.3,0.1,0.4,0.3,0.4,0.6c0,0.4-0.3,0.5-0.8,0.5h-0.3h-4.5h-0.3
		c-0.3,0-0.5,0-0.7-0.1c-0.2-0.1-0.2-0.2-0.2-0.4c0-0.3,0.2-0.5,0.5-0.6c0.3-0.1,0.4-0.1,0.5-0.1c0,0,0.1-0.1,0.1-0.1
		c0.1-0.1,0.2-0.3,0.2-0.6V1.4z"/>
	<path class="st0" d="M88.4,1.4v14h-4.5h-0.3c-0.2,0-0.4,0-0.6-0.1c-0.1-0.1-0.2-0.2-0.2-0.4c0-0.3,0.1-0.5,0.4-0.6
		c0.2-0.1,0.4-0.1,0.4-0.1c0,0,0.1-0.1,0.1-0.1c0.1-0.1,0.1-0.3,0.1-0.5V3.2c0-0.2,0-0.4-0.1-0.5c0-0.1-0.1-0.1-0.1-0.1
		c0,0-0.2-0.1-0.4-0.1c-0.3-0.1-0.4-0.3-0.4-0.6c0-0.2,0.1-0.3,0.2-0.4c0.1-0.1,0.3-0.1,0.6-0.1h0.3H88.4z M89.2,8.8V7.6
		c0.4-0.2,0.7-0.4,0.9-0.6c0.2-0.2,0.3-0.5,0.4-0.9c0.1-0.3,0.1-0.4,0.2-0.5c0.1-0.1,0.2-0.1,0.4-0.1c0.2,0,0.4,0.1,0.4,0.3
		c0,0.1,0.1,0.3,0.1,0.6v3.9c0,0.3,0,0.5-0.1,0.7C91.5,11,91.3,11,91.1,11c-0.2,0-0.3,0-0.4-0.1s-0.2-0.3-0.2-0.5
		c-0.1-0.5-0.3-0.8-0.5-1.1C89.8,9.1,89.6,8.9,89.2,8.8z M89.3,1.4h4.1V5c0,0.2,0,0.4-0.1,0.5c-0.1,0.1-0.2,0.1-0.4,0.1
		c-0.1,0-0.3,0-0.3-0.1c-0.1-0.1-0.1-0.2-0.2-0.4c-0.3-0.8-0.6-1.4-1.1-1.8c-0.5-0.4-1.2-0.7-1.9-0.7V1.4z M89.3,15.3v-1.1
		c0.4-0.1,0.8-0.2,1.1-0.3c0.3-0.1,0.6-0.3,0.9-0.6c0.3-0.3,0.5-0.5,0.7-0.8c0.2-0.3,0.3-0.6,0.5-1.1c0.1-0.2,0.2-0.4,0.2-0.4
		C92.8,11,92.9,11,93,11c0.2,0,0.3,0.1,0.4,0.2c0.1,0.1,0.1,0.3,0.1,0.6v3.6H89.3z"/>
	<path class="st0" d="M96.6,5l1.1,1.8v5.5c0,0.5,0.1,0.9,0.2,1.2c0.2,0.3,0.4,0.6,0.8,0.8l0.3,0.2c0.2,0.1,0.3,0.3,0.3,0.5
		c0,0.2-0.1,0.3-0.2,0.4c-0.1,0.1-0.3,0.1-0.7,0.1H96c-0.6,0-0.9-0.2-0.9-0.5c0-0.1,0-0.2,0.1-0.3s0.2-0.2,0.4-0.3c0.7-0.4,1-1,1-2
		V5z M100.9,1.4l5.4,9.4v4.5h-2.8l-6.9-12c-0.1-0.3-0.3-0.4-0.4-0.5c-0.1-0.1-0.2-0.2-0.4-0.2l-0.4-0.1c-0.1,0-0.2-0.1-0.2-0.2
		c-0.1-0.1-0.1-0.2-0.1-0.3c0-0.1,0-0.2,0.1-0.3c0.1-0.1,0.1-0.2,0.2-0.2c0.1,0,0.4-0.1,0.9-0.1H100.9z M106.3,9.2l-1.1-1.8V4.5
		c0-0.6-0.1-1-0.3-1.3c-0.2-0.3-0.5-0.6-0.9-0.8c-0.1-0.1-0.2-0.1-0.3-0.2c-0.1-0.1-0.1-0.2-0.1-0.3c0-0.2,0.1-0.3,0.2-0.4
		c0.1-0.1,0.3-0.1,0.6-0.1h2.6c0.3,0,0.6,0.1,0.7,0.2c0.1,0.1,0.2,0.2,0.2,0.4c0,0.1,0,0.3-0.1,0.3c-0.1,0.1-0.2,0.2-0.5,0.3
		c-0.4,0.2-0.6,0.5-0.8,0.8c-0.1,0.3-0.2,0.7-0.2,1.1V9.2z"/>
	<path class="st0" d="M108.7,1.4h2.7v1.2c-0.3,0.2-0.6,0.4-0.7,0.7c-0.3,0.5-0.5,1-0.6,1.6L110,5.6c0,0.2-0.1,0.4-0.2,0.5
		c-0.1,0.1-0.3,0.2-0.4,0.2c-0.2,0-0.3-0.1-0.4-0.2c-0.1-0.1-0.2-0.3-0.2-0.5V1.4z M116.8,1.4v12c0,0.3,0.1,0.5,0.2,0.6
		c0.1,0.1,0.1,0.1,0.2,0.1c0,0,0.2,0.1,0.5,0.1c0.3,0.1,0.5,0.3,0.5,0.6c0,0.2-0.1,0.3-0.3,0.4c-0.1,0.1-0.3,0.1-0.7,0.1h-0.3h-4.6
		h-0.3c-0.3,0-0.5,0-0.7-0.1c-0.2-0.1-0.2-0.2-0.2-0.4c0-0.3,0.2-0.5,0.5-0.6c0.3-0.1,0.4-0.1,0.5-0.1c0,0,0.1-0.1,0.1-0.1
		c0.1-0.1,0.2-0.3,0.2-0.6v-12H116.8z M120.3,1.4v4.2c0,0.2-0.1,0.4-0.2,0.5c-0.1,0.1-0.3,0.2-0.4,0.2c-0.2,0-0.3-0.1-0.4-0.2
		s-0.2-0.3-0.2-0.5L119,5c-0.1-0.6-0.3-1.2-0.6-1.6c-0.2-0.3-0.4-0.5-0.7-0.7V1.4H120.3z"/>
	<path class="st0" d="M125,4l0.5,2.1l-1.8,6.6c-0.1,0.2-0.1,0.4-0.1,0.5c0,0.4,0.2,0.7,0.6,0.9l0.4,0.2c0.2,0.1,0.3,0.3,0.3,0.5
		c0,0.3-0.2,0.5-0.7,0.5h-2.6c-0.3,0-0.5-0.1-0.6-0.2c-0.1-0.1-0.2-0.3-0.2-0.4c0-0.2,0.1-0.4,0.4-0.5c0.3-0.1,0.5-0.2,0.6-0.3
		c0.1-0.1,0.3-0.2,0.4-0.4c0.2-0.3,0.3-0.7,0.5-1.1L125,4z M125.7,1.4h4.1l2.8,12c0.1,0.2,0.1,0.4,0.2,0.6c0.1,0.1,0.2,0.2,0.4,0.3
		c0.2,0.1,0.3,0.1,0.4,0.2c0.1,0.1,0.1,0.2,0.1,0.3c0,0.4-0.3,0.5-0.8,0.5h-5.1c-0.2,0-0.4,0-0.5-0.1s-0.2-0.2-0.2-0.4
		c0-0.1,0-0.2,0.1-0.3c0.1-0.1,0.2-0.2,0.4-0.3c0.1-0.1,0.2-0.1,0.3-0.2c0.1-0.1,0.1-0.2,0.1-0.3c0-0.1,0-0.2,0-0.3l-0.3-1.5h-2.9
		l0.3-1.2h2.3l-1.9-8.3L125.7,1.4z"/>
	<path class="st0" d="M140.1,1.4v12c0,0.3,0.1,0.5,0.2,0.6c0.1,0.1,0.1,0.1,0.2,0.1c0,0,0.2,0.1,0.5,0.1c0.3,0.1,0.5,0.3,0.5,0.6
		c0,0.2-0.1,0.3-0.3,0.4c-0.1,0.1-0.3,0.1-0.6,0.1h-0.3h-4.6h-0.3c-0.2,0-0.4,0-0.6-0.1c-0.1-0.1-0.2-0.2-0.2-0.4
		c0-0.3,0.1-0.5,0.4-0.6c0.2-0.1,0.4-0.1,0.4-0.1c0,0,0.1-0.1,0.1-0.1c0.1-0.1,0.1-0.3,0.1-0.5V3.2c0-0.2,0-0.4-0.1-0.5
		c0-0.1-0.1-0.1-0.1-0.1c0,0-0.2-0.1-0.4-0.1c-0.3-0.1-0.4-0.3-0.4-0.6c0-0.2,0.1-0.3,0.2-0.4c0.1-0.1,0.3-0.1,0.6-0.1h0.3H140.1z
		 M143.2,8.5c0.6,0.1,1.1,0.2,1.4,0.3c0.3,0.1,0.6,0.3,0.9,0.5c0.3,0.2,0.5,0.5,0.7,0.8c0.2,0.3,0.2,0.6,0.2,0.9v2.1
		c0,0.2,0.1,0.3,0.2,0.3c0.1,0,0.1,0,0.1,0c0,0,0.1-0.1,0.2-0.2c0.2-0.2,0.3-0.3,0.5-0.3c0.1,0,0.2,0.1,0.3,0.2
		c0.1,0.1,0.2,0.2,0.2,0.4c0,0.2-0.1,0.5-0.3,0.8s-0.5,0.6-0.8,0.8c-0.3,0.2-0.6,0.4-0.9,0.5c-0.3,0.1-0.7,0.1-1.2,0.1
		c-0.9,0-1.6-0.3-2.1-0.8c-0.5-0.5-0.8-1.2-0.8-2.2V11c0-0.4,0-0.6,0-0.7c0-0.3-0.1-0.5-0.3-0.7c-0.2-0.2-0.5-0.4-0.8-0.4V8.1
		c0.4-0.1,0.6-0.1,0.8-0.3c0.1-0.1,0.2-0.3,0.3-0.4c0.1-0.2,0.1-0.4,0.1-0.7V4c0-0.4-0.1-0.7-0.3-1s-0.5-0.4-0.9-0.5V1.4h0.3
		c0.8,0,1.4,0,1.9,0.1c0.8,0.1,1.5,0.3,2.1,0.8c0.9,0.6,1.3,1.5,1.3,2.7c0,1-0.3,1.7-0.9,2.4c-0.3,0.3-0.5,0.5-0.9,0.6
		S143.9,8.3,143.2,8.5z"/>
	<path class="st0" d="M154.8,15.3h-4.6h-0.3c-0.2,0-0.4,0-0.6-0.1c-0.1-0.1-0.2-0.2-0.2-0.4c0-0.3,0.1-0.5,0.4-0.6
		c0.2-0.1,0.4-0.1,0.4-0.1c0,0,0.1-0.1,0.1-0.1c0.1-0.1,0.1-0.3,0.1-0.5V3.2c0-0.2,0-0.4-0.1-0.5c0-0.1-0.1-0.1-0.1-0.1
		c0,0-0.2-0.1-0.4-0.1c-0.3-0.1-0.4-0.3-0.4-0.6c0-0.2,0.1-0.3,0.2-0.4c0.1-0.1,0.3-0.1,0.6-0.1h0.3h4.6h0.3c0.2,0,0.4,0,0.6,0.1
		c0.1,0.1,0.2,0.2,0.2,0.4c0,0.3-0.1,0.5-0.4,0.6c-0.2,0.1-0.4,0.1-0.4,0.1c0,0-0.1,0.1-0.1,0.1c-0.1,0.1-0.1,0.3-0.1,0.5v10.2
		c0,0.2,0,0.4,0.1,0.5c0,0.1,0.1,0.1,0.1,0.1c0,0,0.2,0.1,0.4,0.1c0.3,0.1,0.4,0.3,0.4,0.6c0,0.2-0.1,0.3-0.2,0.4
		c-0.1,0.1-0.3,0.1-0.6,0.1H154.8z"/>
	<path class="st0" d="M160.9,4l0.5,2.1l-1.8,6.6c-0.1,0.2-0.1,0.4-0.1,0.5c0,0.4,0.2,0.7,0.6,0.9l0.4,0.2c0.2,0.1,0.3,0.3,0.3,0.5
		c0,0.3-0.2,0.5-0.7,0.5h-2.6c-0.3,0-0.5-0.1-0.6-0.2s-0.2-0.3-0.2-0.4c0-0.2,0.1-0.4,0.4-0.5c0.3-0.1,0.5-0.2,0.6-0.3
		c0.1-0.1,0.3-0.2,0.4-0.4c0.2-0.3,0.3-0.7,0.5-1.1L160.9,4z M161.6,1.4h4.1l2.8,12c0.1,0.2,0.1,0.4,0.2,0.6
		c0.1,0.1,0.2,0.2,0.4,0.3c0.2,0.1,0.3,0.1,0.4,0.2c0.1,0.1,0.1,0.2,0.1,0.3c0,0.4-0.3,0.5-0.8,0.5h-5.1c-0.2,0-0.4,0-0.5-0.1
		c-0.1-0.1-0.2-0.2-0.2-0.4c0-0.1,0-0.2,0.1-0.3c0.1-0.1,0.2-0.2,0.4-0.3c0.1-0.1,0.2-0.1,0.3-0.2c0.1-0.1,0.1-0.2,0.1-0.3
		c0-0.1,0-0.2,0-0.3l-0.3-1.5h-2.9l0.3-1.2h2.3l-1.9-8.3L161.6,1.4z"/>
	<path class="st0" d="M181.2,1.4v12c0,0.3,0.1,0.5,0.2,0.6c0.1,0.1,0.1,0.1,0.2,0.1c0,0,0.2,0.1,0.5,0.1c0.3,0.1,0.5,0.3,0.5,0.6
		c0,0.2-0.1,0.3-0.3,0.4c-0.1,0.1-0.3,0.1-0.6,0.1h-0.3h-4.6h-0.3c-0.2,0-0.4,0-0.6-0.1c-0.1-0.1-0.2-0.2-0.2-0.4
		c0-0.3,0.1-0.5,0.4-0.6c0.2-0.1,0.4-0.1,0.4-0.1c0,0,0.1-0.1,0.1-0.1c0.1-0.1,0.1-0.3,0.1-0.5V3.2c0-0.2,0-0.4-0.1-0.5
		c0-0.1-0.1-0.1-0.1-0.1c0,0-0.2-0.1-0.4-0.1c-0.3-0.1-0.4-0.3-0.4-0.6c0-0.2,0.1-0.3,0.2-0.4c0.1-0.1,0.3-0.1,0.6-0.1h0.3H181.2z
		 M182.1,8.8V7.6c0.4-0.2,0.7-0.4,0.9-0.6c0.2-0.2,0.3-0.5,0.4-0.9c0.1-0.3,0.1-0.4,0.2-0.5c0.1-0.1,0.2-0.1,0.4-0.1
		c0.2,0,0.4,0.1,0.4,0.3c0,0.1,0.1,0.3,0.1,0.6v3.9c0,0.3,0,0.5-0.1,0.7c-0.1,0.1-0.2,0.2-0.4,0.2c-0.2,0-0.3,0-0.4-0.1
		c-0.1-0.1-0.2-0.3-0.2-0.5c-0.1-0.5-0.3-0.8-0.5-1.1S182.4,8.9,182.1,8.8z M182.1,1.4h4.1V5c0,0.2,0,0.4-0.1,0.5s-0.2,0.2-0.4,0.2
		c-0.1,0-0.2,0-0.3-0.1c-0.1-0.1-0.1-0.2-0.2-0.4c-0.1-0.3-0.2-0.6-0.4-0.9c-0.2-0.3-0.3-0.5-0.6-0.7c-0.3-0.3-0.6-0.5-0.9-0.6
		c-0.3-0.1-0.7-0.2-1.2-0.3V1.4z"/>
	<path class="st0" d="M193.1,1.4v14h-4.5h-0.3c-0.2,0-0.4,0-0.6-0.1c-0.1-0.1-0.2-0.2-0.2-0.4c0-0.3,0.1-0.5,0.4-0.6
		c0.2-0.1,0.4-0.1,0.4-0.1c0,0,0.1-0.1,0.1-0.1c0.1-0.1,0.1-0.3,0.1-0.5V3.2c0-0.2,0-0.4-0.1-0.5c0-0.1-0.1-0.1-0.1-0.1
		c0,0-0.2-0.1-0.4-0.1c-0.3-0.1-0.4-0.3-0.4-0.6c0-0.2,0.1-0.3,0.2-0.4c0.1-0.1,0.3-0.1,0.6-0.1h0.3H193.1z M196.3,8.1
		c0.6,0.1,1.1,0.2,1.4,0.4c0.3,0.1,0.6,0.3,0.9,0.4c0.5,0.3,0.8,0.7,1,1.2c0.2,0.5,0.4,1,0.4,1.6c0,1.2-0.4,2.1-1.3,2.7
		c-0.4,0.3-0.9,0.6-1.5,0.7c-0.5,0.1-1.2,0.2-2.1,0.2h-1.2v-1.1c0.3,0,0.5-0.1,0.6-0.1c0.2-0.1,0.3-0.2,0.4-0.3
		c0.2-0.3,0.3-0.6,0.3-1.2v-2.3c0-0.3,0-0.6-0.1-0.8c-0.1-0.2-0.2-0.4-0.3-0.5c-0.1-0.1-0.2-0.2-0.4-0.3s-0.3-0.1-0.6-0.1V7.6
		c0.3,0,0.4-0.1,0.6-0.1c0.1,0,0.3-0.1,0.4-0.2c0.1-0.1,0.2-0.2,0.3-0.4s0.1-0.3,0.1-0.4V5.8V4.1c0-0.2,0-0.4-0.1-0.6
		c-0.1-0.2-0.1-0.4-0.2-0.5c-0.1-0.2-0.3-0.3-0.4-0.3c-0.2-0.1-0.4-0.1-0.6-0.2V1.4h1.2c1.6,0,2.7,0.3,3.6,1
		c0.4,0.3,0.7,0.6,0.9,1.1c0.2,0.4,0.3,0.9,0.3,1.3c0,0.5-0.1,0.9-0.3,1.3s-0.5,0.8-0.8,1.1c-0.3,0.2-0.6,0.4-0.9,0.5
		C197.4,7.8,196.9,8,196.3,8.1z"/>
</g>
</svg>
