<?xml version="1.0" encoding="utf-8"?>
<!-- Generator: Adobe Illustrator 25.0.1, SVG Export Plug-In . SVG Version: 6.00 Build 0)  -->
<svg version="1.1"
	 id="Camada_1" text-rendering="geometricPrecision" image-rendering="optimizeQuality" shape-rendering="geometricPrecision"
	 xmlns="http://www.w3.org/2000/svg" xmlns:xlink="http://www.w3.org/1999/xlink" x="0px" y="0px" viewBox="0 0 1000 1000"
	 style="enable-background:new 0 0 1000 1000;" xml:space="preserve">
<style type="text/css">
	.st0{fill:#FFFFFF;}
</style>
<g>
	<path class="st0" d="M0,192.3l19.9,615.4h96.9l-2.1-255.2h81.2V473h-81.2l0.3-200.2h106l-0.6-80.4H0z M258.7,192.3L271,807.7h100
		l2-615.4L258.7,192.3z M727.6,192.3v77.6h79l-2.3,537.8h96.8l20.6-537.8h78.4l-0.6-77.5H727.6z M523.8,477.1l1.1-209h55.9
		c25.3,46.5,41.6,108.1,54.3,209H523.8z M434.6,807.7h92.6l1-254.5h110.9c8.7,44.9,10.9,183.5,11.4,254.5h89.8
		c8.5-314.2-17.8-491.7-90.6-615.4H426.1L434.6,807.7z"/>
</g>
</svg>
