<?xml version="1.0" encoding="utf-8"?>
<!-- Generator: Adobe Illustrator 25.0.1, SVG Export Plug-In . SVG Version: 6.00 Build 0)  -->
<svg version="1.1" id="Camada_1" xmlns="http://www.w3.org/2000/svg" xmlns:xlink="http://www.w3.org/1999/xlink" x="0px" y="0px"
	 viewBox="0 0 1000 1000" style="enable-background:new 0 0 1000 1000;" xml:space="preserve">
<style type="text/css">
	.st0{fill-rule:evenodd;clip-rule:evenodd;fill:#FFFFFF;}
</style>
<g>
	<path class="st0" d="M240.2,507.9c0-24.5-2.9-44-51.6-44c-40.6,0-54.2,14.6-53.9,38.7H171c1-8.8,9.3-12.7,15-12.7
		c4.3,0,13.3,1,13.3,8.4c0,22.4-70.3,1.7-70.3,49.3c0,21.4,22.2,30.1,33.8,29.8c15.3-0.4,27.1-3.1,38.7-13.9l4.4,11h36.1
		C240.4,570.5,240.2,507.9,240.2,507.9z M180.5,553.9c-8,0-11.5-5.5-11.5-10.6c0.1-8.7,18.2-8.4,31.5-14.9
		C201.5,542.5,194.8,553.9,180.5,553.9L180.5,553.9z M960.9,531.3c-1.2,8-5.3,18-15.9,18c-12.8,0-19.9-12.5-19.9-28
		c0-12.2,4.6-28.5,19.9-28.5c4.5,0,8,1.4,10.6,4.1c2.6,2.6,4.1,6.1,4.3,10.6h39.3c-2.9-30.4-26.7-42.2-54.2-42.2
		c-34,0-59.1,20.2-59.1,55.3c0,34.7,25.9,56.1,59.1,56.1c28.5,0,51.4-14.3,55-45.5L960.9,531.3L960.9,531.3L960.9,531.3z
		 M842.2,574.5h39.4V468.8h-39.4V574.5z M842.2,452.7h39.4v-27h-39.4V452.7z M656.8,464.2c-34.7,0-58.7,20.8-58.7,56.6
		c0,35.1,25.9,56,58.8,56c33,0,58.9-20.3,58.9-58C715.9,486.8,693.2,464.2,656.8,464.2z M657,549.3c-10.4,0-18.5-11.2-18.5-30.6
		c0-11.6,4.9-25.9,18.8-25.9c10.6-0.6,18.1,11.6,18.1,26.7C675.5,539,668,549.3,657,549.3L657,549.3z M526.7,494.5
		c0.1-5.1,5.6-7.5,12.7-7.5c3.1,0,7.6,0.8,9.7,2.6c1,0.8,3.5,3.9,3.9,7.5h37.1c-1-27.5-27.9-33.2-52-33.2
		c-21.4,0-49.1,8.5-49.2,34.8c-0.1,43.2,65.9,27.4,65.9,43.9c0,7.3-5.4,10-15.2,10c-3.9,0-8.2-2.7-10.7-4.6
		c-2.8-2.2-3.9-4.7-4.3-9.4H488c0.7,28.8,27,39.5,50.6,39.5c43.7,0,56.3-19,56.4-40.4C595.3,496.3,526.5,509.3,526.7,494.5
		L526.7,494.5z M482,507.9c0-24.5-2.9-44-51.6-44c-40.6,0-54.2,14.6-53.9,38.7h36.4c1-8.8,9.3-12.7,15-12.7c4.3,0,13.3,1,13.3,8.4
		c0,22.4-70.3,1.7-70.3,49.3c0,21.4,22.2,30.1,33.8,29.8c15.3-0.4,27.1-3.1,38.7-13.9l4.4,11h36.1C482.2,570.5,482,507.9,482,507.9z
		 M422.3,553.9c-8,0-11.5-5.5-11.5-10.6c0.1-8.7,18.2-8.4,31.5-14.9C443.3,542.5,436.6,553.9,422.3,553.9L422.3,553.9z M70,422H0
		v152.4h45.2v-47.3h26.4c40.6,0,60.4-21.8,60.4-52.3C132.1,445.8,110.7,422,70,422L70,422z M68,493.6H45.2v-34.4h16.6
		c9.8,0,24.7,2.7,24.7,15.8C86.6,487.2,78.8,493.6,68,493.6z M795.3,464.2c-15.5,0-22,2.6-36.5,15.8l0.1-11.7l-37.4,0v106.2h37.4
		v-55.8c0-13.2,6.8-21.2,19.3-21.2c11.6,0,14.3,6.1,14.3,16.3v60.7h40.8v-65C833.4,481.2,822.4,464.2,795.3,464.2z M326,464.2
		c-15.5,0-22.1,2.6-36.5,15.8l0.1-11.7l-37.4,0v106.2h39.4v-55.8c0-13.2,5.2-22.7,17.8-22.7c11.6,0,13.9,7.6,13.9,17.8v60.7h40.8
		v-65C364.2,481.2,353.1,464.2,326,464.2L326,464.2z"/>
</g>
</svg>
