<?xml version="1.0" encoding="utf-8"?>
<!-- Generator: Adobe Illustrator 25.0.1, SVG Export Plug-In . SVG Version: 6.00 Build 0)  -->
<svg version="1.1" id="Camada_1" xmlns="http://www.w3.org/2000/svg" xmlns:xlink="http://www.w3.org/1999/xlink" x="0px" y="0px"
	 viewBox="0 0 1000 1000" style="enable-background:new 0 0 1000 1000;" xml:space="preserve">
<style type="text/css">
	.st0{fill-rule:evenodd;clip-rule:evenodd;fill:#FFFFFF;}
</style>
<g>
	<path class="st0" d="M773.4,481.4c5.8,1.2,15.1,9.3,14,14c0,0-3.5,11.7-8.2,36.1h-33.8l4.7-26.8h-16.3l-14,74.6h16.3l5.8-23.3h33.8
		c0,0-4.7,18.6-8.2,33.8c0,8.2-11.6,14-18.6,12.8h-54.8c-5.8,0-12.8-5.8-14-12.8c5.8-32.6,11.6-64.1,18.6-94.4
		c1.2-10.5,11.7-14,21-14C745.5,480.2,745.5,480.2,773.4,481.4L773.4,481.4z M881.8,589.7c0,8.2-10.5,14-17.5,12.8h-54.8
		c-5.8,0-14-5.8-14-12.8c5.6-31.5,11.4-63,17.5-94.4c2.3-10.5,12.8-14,22.1-14c24.5-1.2,24.5-1.2,53.6,0c5.8,1.2,15.1,9.3,12.8,14
		L881.8,589.7z M864.3,504.7H848l-14,74.6h16.3L864.3,504.7z M435.5,481.4c-9.3,41.9-14,78.1-23.3,121.2h-47.8
		c-4.7-22.1-8.2-38.5-14-60.6l-14,61.8c-12.8,1.2-22.1,1.2-35,1.2c10.5-43.1,17.5-81.6,26.8-123.5h44.3
		c3.5,19.8,10.5,46.6,15.1,65.3c5.8-24.5,10.5-53.6,14-65.3L435.5,481.4L435.5,481.4z M568.3,481.4c-9.3,41.9-14,78.1-22.1,121.2
		h-47.8c-5.8-22.1-8.2-38.5-15.2-60.6l-12.8,61.8c-14,1.2-22.1,1.2-35,1.2c9.3-43.1,16.3-81.6,25.6-123.5l44.3,0
		c3.5,19.8,10.5,46.6,15.1,65.3c7-24.5,11.6-53.6,14-65.3C550.9,481.4,557.9,481.4,568.3,481.4L568.3,481.4z M301.5,480.2
		c-2.3,12.8-3.5,18.6-5.8,28h-41.9l-5.8,23.3l44.3,0l-5.8,24.5l-43.1,0l-4.7,21H284l-5.8,25.6h-81.6l23.3-122.4L301.5,480.2
		L301.5,480.2z M673.2,480.2c-2.3,12.8-3.5,18.6-4.7,28h-43.1l-5.8,23.3h44.3l-4.7,24.5H615l-3.5,21h44.3l-5.8,25.6h-81.6
		l24.5-122.4L673.2,480.2L673.2,480.2z M200.1,507h-35l-17.5,95.6l-37.3,1.2c7-35,12.8-62.9,18.6-96.7c-12.8,1.2-19.8,0-33.8,0
		l5.8-25.6c35,0,65.3-1.2,103.7-1.2L200.1,507L200.1,507z"/>
	<path class="st0" d="M12.5,490.7c298.3-95.6,680.6-96.7,981.2,5.8c5.8,2.3,8.2-4.7,4.7-8.2C702.4,360.2,299.2,369.5,2,483.7
		C-2.7,488.4,0.8,494.2,12.5,490.7L12.5,490.7z"/>
</g>
</svg>
