<?xml version="1.0" encoding="utf-8"?>
<!-- Generator: Adobe Illustrator 25.0.1, SVG Export Plug-In . SVG Version: 6.00 Build 0)  -->
<svg version="1.1" id="Camada_1" xmlns="http://www.w3.org/2000/svg" xmlns:xlink="http://www.w3.org/1999/xlink" x="0px" y="0px"
	 viewBox="0 0 1000 1000" style="enable-background:new 0 0 1000 1000;" xml:space="preserve">
<style type="text/css">
	.st0{fill-rule:evenodd;clip-rule:evenodd;fill:#FFFFFF;}
</style>
<g>
	<path class="st0" d="M830.2,380.6H1000L836.2,585l-86.1-103.8L830.2,380.6L830.2,380.6z"/>
	<path class="st0" d="M466.2,0L0,804.3l454.3,0c-88.6-33-151.8-118.2-151.8-218c0-128.5,104.5-232.7,233.3-232.7
		c73.1,0,138.3,33.5,181.1,85.9c0.7,0.8,3.8,0.5,2.8-2.1L466.2,0z M617.5,804.3c66-23.8,98.4-67.7,134.2-115.3
		c39.5,51.5,104.3,109.1,175.6,112.5c4.8,0,5,2.8,0,2.8L617.5,804.3L617.5,804.3L617.5,804.3z"/>
	<path class="st0" d="M668.2,586.2l-50,63.4c-15.5,18.3-35.5,41.1-82.4,41.1c-57.9,0-104.8-46.8-104.8-104.5
		c0-57.7,46.9-104.5,104.8-104.5c46.9,0,66.9,22.8,82.4,41.1L668.2,586.2L668.2,586.2z M149.3,893.5h-38.3v-23.6h104.8v23.6h-38.3
		v104h-28.1V893.5z"/>
	<path class="st0" d="M220,958.9c0.5,10.8,7.2,19.7,21.4,19.7c10.2,0,15.5-4.1,17.1-10.5l27.9,0.1c-7.2,22.5-24.1,31.8-45.1,31.8
		c-29.2,0-47.3-20-47.3-48.6c0-27.7,19.2-48.8,47.3-48.8c31.5,0,47.5,27.8,45.7,56.2L220,958.9L220,958.9z M259.4,940.4
		c-0.5-7.7-8.9-17.3-18.8-17.3c-13.5,0-19,12.5-19.3,17.3H259.4L259.4,940.4z M325.5,905.9h17.6v18.6h-17.6v43.3
		c0,8.6,2.2,10.7,10.8,10.7c2.7,0,5.2-0.2,7.9-0.7v19.8c-4.3,0.7-9.9,0.9-14.9,0.9c-15.6,0-29.2-3.6-29.2-22v-52.1h-13.8V906h13.8
		v-28.5h25.4V905.9z M409.5,926.3c-1-0.1-2-0.1-3.1-0.1c-18.6,0-25.1,13.4-25.1,29.7v41.6h-25.4v-92.4h24.2v17.2h0.4
		c4.5-15.2,11.7-19.7,29-19.7L409.5,926.3L409.5,926.3z M413.5,934.9c1.4-25.2,17.1-32.3,39.3-32.3c24.8,0,40.7,9.9,40.7,26.3V977
		c0,8.4,0.9,16.8,3.2,20.5h-25.8c-1-2.9-1.6-5.9-1.8-8.9c-8.1,8.4-15.1,10.6-26.4,10.6c-19.1,0-35.4-10.1-35.4-26.9
		c0-20.9,18.5-27.8,30.2-29.4c15.6-2.2,30.5-1.9,30.5-10.8c0-9.7-12.6-10-16.5-10c-5.6,0-14,2.4-14.6,12.8L413.5,934.9L413.5,934.9
		L413.5,934.9z M469.8,951.4c-4.3,3.8-13.6,5.3-21.4,6.8c-7.9,1.6-15.2,3.3-15.2,12.6c0,4.5,3.8,9.8,12.1,9.8
		c19.9,0,24.5-14.1,24.5-19.7V951.4L469.8,951.4z M538.1,872.2h57.7c23.2,0,39.4,18.3,39.4,39c0,22.4-11.6,42.8-39.4,42.8h-29.6
		v43.5h-28.1L538.1,872.2L538.1,872.2z M567.8,932.2H588c5.6,0,20.5-3.2,20.5-19.1c0-16.3-11.6-19.1-20.5-19.1h-20.3V932.2
		L567.8,932.2z M731.2,871.1h25.4V940l31.1-33.8h32.9l-36.1,36.3l37.3,55h-31.6l-24.2-39.1l-9.2,9.7v29.4h-25.4L731.2,871.1
		L731.2,871.1z M634.6,934.9c1.4-25.2,17.1-32.3,39.3-32.3c24.8,0,40.7,9.9,40.7,26.3V977c0,8.4,0.9,16.8,3.2,20.5H692
		c-1-2.9-1.6-5.9-1.8-8.9c-8.1,8.4-15.1,10.6-26.4,10.6c-19.1,0-35.4-10.1-35.4-26.9c0-20.9,18.5-27.8,30.2-29.4
		c15.6-2.2,30.5-1.9,30.5-10.8c0-9.7-12.6-10-16.5-10c-5.6,0-14,2.4-14.6,12.8L634.6,934.9L634.6,934.9L634.6,934.9z M690.8,951.4
		c-4.3,3.8-13.6,5.3-21.4,6.8c-7.9,1.6-15.1,3.3-15.1,12.6c0,4.5,3.8,9.8,12.1,9.8c19.9,0,24.5-14.1,24.5-19.7L690.8,951.4
		L690.8,951.4z"/>
</g>
</svg>
