<?xml version="1.0" encoding="utf-8"?>
<!-- Generator: Adobe Illustrator 25.0.1, SVG Export Plug-In . SVG Version: 6.00 Build 0)  -->
<svg version="1.1" id="Camada_1" xmlns="http://www.w3.org/2000/svg" xmlns:xlink="http://www.w3.org/1999/xlink" x="0px" y="0px"
	 viewBox="0 0 1000 1000" style="enable-background:new 0 0 1000 1000;" xml:space="preserve">
<style type="text/css">
	.st0{fill:#FFFFFF;}
</style>
<path class="st0" d="M933.1,608.1v-78.5h-55.7v78.5h-66.9V391.4h66.9v74h55.7v-74h66.9v216.7H933.1z M724.5,455.6v152.5h-66.9V455.6
	h-45.5v-64.2H770v64.2H724.5z M504.7,391.4h66.9v216.7h-66.9V391.4z M403,499.8c0,28.5-22.7,51.7-51.3,51.7
	c-28.5,0-51.7-23.2-51.7-51.7c0-28.5,23.2-51.3,51.7-51.3c28.2-0.2,51.1,22.6,51.3,50.7C403,499.4,403,499.6,403,499.8 M464.6,499.8
	c0-62.4-50.4-112.8-112.8-112.8c-62.4,0-113.2,50.4-113.2,112.8S289.3,613,351.8,613C414.2,613,464.6,562.2,464.6,499.8
	 M163.2,391.4l-44.6,121.3L74,391.4H0l93.2,216.7h50.4l93.6-216.7L163.2,391.4L163.2,391.4z"/>
</svg>
